<svg width="260" height="140" viewBox="0 0 260 140" fill="none" xmlns="http://www.w3.org/2000/svg">
<path d="M140.126 65.3116C141.02 64.0918 141.891 62.9172 142.698 61.7651H156.473L161.834 54.5592H147.427C150.522 49.3862 151.874 45.8623 150.98 45.0716C150.784 44.8909 150.435 44.8683 149.999 45.0039C148.931 45.3202 147.624 46.2914 146.708 47.0144C145.771 47.7372 144.703 48.6634 143.526 49.7251C140.932 52.097 141.041 52.0292 143.373 49.9961C144.681 48.8666 145.727 48.0761 146.512 47.6694C146.752 47.5565 146.948 47.4661 147.144 47.4209C147.427 47.3532 147.624 47.3532 147.754 47.4661C148.386 48.0083 147.188 50.6513 144.703 54.5592C141.848 59.077 137.249 65.3343 131.8 71.9981L131.408 72.4724C128.444 76.0867 125.545 79.43 122.886 82.3214H140.126V72.1562H155.252L160.287 65.402H140.126V65.3116V65.3116Z" fill="#FEC10D"/>
<path d="M132.738 91.1191V90.8085H133.449L132.738 87.2144V86.7042H132.954L134.204 92.8051H133.794L133.493 91.119L132.738 91.1191ZM138.839 92.783L139.012 86.682H139.4L140.65 92.184L141.922 86.682H142.332L142.504 92.783H142.159L142.008 87.6804L140.801 92.783H140.521L139.335 87.6804L139.184 92.783H138.839ZM147.42 92.783V86.682H149.468V87.0148H147.808V89.4552H149.166V89.7658H147.808V92.4502H149.468V92.783H147.42ZM155.397 92.8718C154.534 92.8718 154.06 92.3393 153.974 91.2966L154.319 91.1857C154.34 91.3632 154.362 91.5184 154.405 91.6294C154.426 91.7625 154.47 91.8734 154.534 92.0065C154.599 92.1174 154.664 92.2283 154.728 92.2949C154.815 92.3614 154.901 92.428 155.009 92.4724C155.116 92.5167 155.267 92.539 155.397 92.539C156.022 92.539 156.345 92.2062 156.345 91.5628C156.345 91.3187 156.281 91.0747 156.151 90.8751C156.022 90.6753 155.828 90.4314 155.569 90.1651L154.491 89.0558C154.146 88.7008 153.974 88.3237 153.974 87.9022C153.974 87.5029 154.081 87.1922 154.319 86.9926C154.556 86.7708 154.858 86.6598 155.267 86.6598H155.289C155.72 86.6598 156.043 86.7708 156.259 87.0148C156.496 87.2589 156.625 87.636 156.647 88.1907L156.302 88.2794C156.259 87.8357 156.173 87.5251 156.022 87.3032C155.871 87.1035 155.634 86.9926 155.31 86.9926H155.267C154.987 86.9926 154.75 87.0813 154.577 87.2145C154.405 87.3697 154.319 87.5916 154.319 87.88C154.319 88.0352 154.362 88.1906 154.426 88.3459C154.491 88.5012 154.599 88.6565 154.771 88.8118L155.849 89.8988C156.13 90.1872 156.345 90.4535 156.496 90.7197C156.647 90.9859 156.733 91.2743 156.733 91.5627C156.733 92.0064 156.604 92.3393 156.367 92.5611C156.108 92.7609 155.785 92.8718 155.397 92.8718ZM125.235 92.8718C125.02 92.8718 124.826 92.8495 124.653 92.7831C124.481 92.7166 124.351 92.65 124.244 92.539C124.136 92.4281 124.05 92.295 123.985 92.1397C123.92 91.9844 123.877 91.8069 123.856 91.6294C123.834 91.4519 123.812 91.2523 123.812 91.0304V88.4347C123.812 88.2129 123.834 88.0132 123.856 87.8357C123.877 87.6582 123.92 87.5029 124.007 87.3476C124.071 87.1923 124.157 87.0592 124.265 86.9705C124.373 86.8596 124.502 86.793 124.675 86.7264C124.847 86.6598 125.041 86.6377 125.257 86.6377C125.753 86.6377 126.098 86.7929 126.313 87.0813C126.529 87.3697 126.637 87.8134 126.637 88.3681V88.59H126.249V88.3459C126.249 87.88 126.184 87.525 126.033 87.3032C125.882 87.0813 125.623 86.9704 125.257 86.9704C125.084 86.9704 124.934 86.9926 124.804 87.037C124.675 87.0813 124.589 87.1479 124.502 87.2367C124.416 87.3254 124.373 87.4142 124.33 87.5473C124.287 87.6805 124.244 87.8135 124.244 87.9466C124.222 88.0798 124.222 88.2573 124.222 88.4348V91.097C124.222 91.341 124.244 91.5407 124.265 91.696C124.287 91.8735 124.351 92.0067 124.416 92.1397C124.502 92.2729 124.61 92.3838 124.739 92.4503C124.869 92.5169 125.041 92.5391 125.257 92.5391C125.451 92.5391 125.602 92.5168 125.731 92.4503C125.861 92.3838 125.968 92.2951 126.033 92.1619C126.098 92.0288 126.162 91.8735 126.184 91.7182C126.206 91.5407 126.227 91.3411 126.227 91.1192V90.2318H125.278V89.9211H126.594V92.8275H126.335L126.27 92.1397C126.163 92.6277 125.796 92.8718 125.235 92.8718ZM132.738 86.7043V87.2145V87.1923L132.027 90.8085H132.738V91.1191H131.962L131.639 92.8052H131.25L132.501 86.7043H132.738Z" fill="#FEC10D"/>
<path d="M131.931 65.9576C132.258 65.4861 132.541 64.9249 132.759 64.2962C132.977 63.6676 133.086 62.9267 133.086 62.1185C133.086 60.8613 132.846 59.7387 132.345 58.7958C131.843 57.8529 131.145 57.0447 130.229 56.4161C129.313 55.765 128.201 55.2935 126.914 54.9793C125.628 54.665 124.166 54.5078 122.574 54.5078L104.625 54.5084L99.2383 61.6701L122.945 61.6695C123.534 61.6695 124.058 61.8042 124.537 62.0511C125.017 62.2981 125.257 62.7695 125.257 63.4431C125.257 64.1615 125.017 64.6554 124.559 64.9023C124.101 65.1719 123.556 65.2841 122.945 65.2841H116.446V65.2847H99.2399V82.0552H116.469V82.0547H118.038C117.58 82.5261 117.035 83.1098 116.446 83.716V83.7154C114.243 85.9829 111.299 88.8566 109.009 90.1812C108.791 90.2934 108.595 90.4057 108.42 90.473C107.984 90.6527 107.679 90.6751 107.504 90.5179C106.523 89.6424 110.579 84.2767 110.579 84.2767C107.635 87.5993 104.408 92.9875 105.76 94.1549C106.021 94.3794 106.458 94.357 107.068 94.11C107.613 93.8855 108.289 93.5039 109.075 92.9426C109.38 92.7181 109.707 92.4936 110.034 92.2242C111.757 90.8996 113.938 89.0362 116.446 86.6789V86.6795C117.929 85.2875 119.521 83.7385 121.179 82.0547C124.254 78.9116 127.569 75.2971 130.84 71.3682C131.298 70.807 131.756 70.2681 132.192 69.7068C132.061 69.5721 131.931 69.415 131.8 69.3027C131.32 68.8313 130.797 68.4721 130.208 68.1802C129.946 68.0679 129.706 67.9557 129.423 67.8659C129.881 67.7087 130.317 67.4618 130.775 67.1474C131.211 66.8332 131.603 66.429 131.931 65.9576ZM124.755 74.4663C124.363 74.8031 123.709 74.9602 122.793 74.9602H116.446V74.9608H107.549V71.1663H116.469V71.1661H122.793C123.709 71.1661 124.363 71.3233 124.755 71.6376C125.148 71.9519 125.366 72.4234 125.366 73.0295C125.366 73.6581 125.17 74.1521 124.755 74.4663Z" fill="black"/>
</svg>
