<svg width="260" height="140" viewBox="0 0 260 140" fill="none" xmlns="http://www.w3.org/2000/svg">
<path d="M83.5894 86.9677V89.8569H86.1363C85.5621 90.6138 84.7193 91.3522 83.682 91.3522C81.9409 91.3522 80.811 90.0969 80.811 88.38C80.811 86.6632 82.3855 85.8601 82.7559 85.7216C83.1264 85.5831 84.3674 85.4447 84.886 85.9062L86.4605 82.6294C85.9974 82.4171 85.8863 81.9371 83.5894 81.9371C79.9775 81.9371 77.1064 84.937 77.1064 88.5369C77.1064 92.0445 79.9775 94.9983 83.5894 94.9983C87.5718 94.9983 90.2113 91.8599 90.2113 88.38L90.1187 86.9677H83.5894Z" fill="#4E5148"/>
<path d="M91.2301 94.5461H95.5367L96.2313 92.9214H100.399L101.038 94.5461H105.446L100.306 82.4171H96.3702L91.2301 94.5461ZM97.25 90.0599L98.2688 87.1523L99.4264 90.0599H97.25Z" fill="#4E5148"/>
<path d="M114.476 92.9214L117.301 88.5831V94.5737L121.422 94.5461V82.4171H117.116L114.476 86.6908L111.929 82.4171L107.623 82.4447V94.5737L111.679 94.5461V88.5831L114.476 92.9214Z" fill="#4E5148"/>
<path d="M130.869 94.9983C135.175 95.0906 137.352 91.3983 137.445 88.4762C137.555 84.9831 134.296 81.8447 130.869 81.8447C127.396 81.8447 124.293 84.8763 124.293 88.4762C124.293 92.1829 127.258 94.9209 130.869 94.9983ZM130.869 90.983C129.943 90.983 128.322 90.2907 128.322 88.4762C128.322 86.6617 129.943 85.9062 130.869 85.9062C131.795 85.9062 133.416 86.7224 133.416 88.4762C133.416 90.23 131.795 90.983 130.869 90.983Z" fill="#4E5148"/>
<path d="M174.398 94.5461H178.519V85.86H182.131V82.3062H170.823V85.86H174.398V94.5461Z" fill="#4E5148"/>
<path d="M147.169 92.949L149.994 88.6107V94.6013L154.115 94.5737V82.4447H149.809L147.169 86.7184L144.622 82.4447L140.316 82.4723V94.6013L144.372 94.5737V88.6107L147.169 92.949Z" fill="#4E5148"/>
<path d="M156.292 94.5461H160.598L161.293 92.9214H165.46L166.099 94.5461H170.508L165.368 82.4171H161.432L156.292 94.5461ZM162.311 90.0599L163.33 87.1523L164.488 90.0599H162.311Z" fill="#4E5148"/>
<path d="M129.607 49.7077V56.9684C122.013 56.5069 122.013 49.7077 122.013 49.7077C121.735 43.8149 127.419 41.7381 129.225 41.7381C136.877 41.7381 137.34 48.8917 137.34 49.3071V27.2923C137.34 27.2923 135.338 26 129.225 26C114.36 26 105.574 38.3689 106.222 49.9994C105.944 58.4915 113.585 72.7411 129.225 72.7411C145.537 72.7411 153.038 59.4146 153.038 49.7077H129.607Z" fill="#A7CE3D"/>
</svg>
