<svg width="260" height="140" viewBox="0 0 260 140" fill="none" xmlns="http://www.w3.org/2000/svg">
<path d="M165.957 92.625C155.342 92.625 146.707 84.1303 146.707 73.6886C146.707 63.2469 155.342 54.7522 165.957 54.7522C176.572 54.7522 185.207 63.2469 185.207 73.6886C185.207 84.1303 176.572 92.625 165.957 92.625ZM165.957 57.0816C156.65 57.0816 149.063 64.5333 149.063 73.7002C149.063 82.8671 156.638 90.3188 165.957 90.3188C175.276 90.3188 182.851 82.8671 182.851 73.7002C182.851 64.5333 175.264 57.0816 165.957 57.0816Z" fill="#F59238"/>
<path d="M161.044 50.5685C161.044 50.6148 160.985 50.6264 160.974 50.5801C160.444 48.3086 155.649 38.8173 155.154 39.0027C154.588 39.1997 155.625 48.946 156.379 51.8201C156.391 51.8664 156.332 51.878 156.309 51.8433C152.963 46.5935 149.11 46.6978 148.368 46.8021C148.321 46.8137 148.321 46.8716 148.356 46.8832C152.975 49.2242 155.201 55.911 155.413 56.5716C155.425 56.5947 155.448 56.6063 155.484 56.5947C158.052 55.065 160.997 54.0915 164.155 53.8134C164.178 53.8134 164.202 53.7902 164.19 53.767C164.049 53.176 162.717 47.0338 165.274 42.7691C165.297 42.7343 165.262 42.688 165.227 42.6996C164.567 42.9198 161.186 44.9015 161.044 50.5685Z" fill="#F59238"/>
<path d="M176.137 65.3652C176.942 63.2629 175.107 60.6366 172.039 59.4992C168.97 58.3618 165.83 59.1439 165.024 61.2463C164.219 63.3486 166.054 65.9749 169.123 67.1123C172.191 68.2497 175.332 67.4675 176.137 65.3652Z" fill="#F59238"/>
<path d="M74.4938 78.4779V69.6147H77.0996C78.0227 69.6147 78.8758 69.8186 79.3432 70.1405C80.1261 70.6877 80.3364 71.632 80.3364 72.1792C80.3364 73.0055 80.0325 73.5098 79.7287 73.8746C79.4716 74.175 78.8173 74.454 78.3732 74.615C78.9692 75.409 80.7687 78.5959 80.7687 78.5959H78.642C78.642 78.5959 76.6439 74.8832 76.4452 74.8832H76.1297V78.4779L74.4938 78.4779ZM76.9594 71.1599H76.1297V73.1879H76.9594C77.4852 73.1879 77.7773 73.102 78.0694 72.9196C78.3616 72.7372 78.5135 72.4904 78.5135 72.1792C78.5135 71.8681 78.3732 71.6213 78.0811 71.4388C77.789 71.2564 77.4968 71.1599 76.9594 71.1599Z" fill="#2B2A2A"/>
<path d="M66.957 78.4779V69.6147H69.5628C70.486 69.6147 71.3389 69.8186 71.8063 70.1405C72.5893 70.6877 72.7996 71.632 72.7996 72.1792C72.7996 73.499 71.8648 74.4218 70.9767 74.6364C69.9952 74.8725 68.593 74.8832 68.593 74.8832V78.4779L66.957 78.4779ZM69.4343 71.1599H68.6046V73.1879H69.4343C69.9601 73.1879 70.2523 73.102 70.5444 72.9196C70.8365 72.7372 70.9884 72.4904 70.9884 72.1792C70.9884 71.8681 70.8481 71.6213 70.556 71.4388C70.2639 71.2564 69.9718 71.1599 69.4343 71.1599Z" fill="#2B2A2A"/>
<path d="M152.341 78.596V69.7329H155.063C155.987 69.7329 156.84 69.9367 157.307 70.2587C158.09 70.8059 158.3 71.7502 158.3 72.2974C158.3 73.1236 157.996 73.6279 157.693 73.9928C157.436 74.2932 156.781 74.5722 156.337 74.7331C155.753 74.937 154.222 74.8941 154.222 74.8941L154.211 78.6068L152.341 78.596ZM154.935 71.278H154.222V73.306H154.935C155.461 73.306 155.753 73.2202 156.045 73.0378C156.337 72.8554 156.489 72.6086 156.489 72.2974C156.489 71.9862 156.349 71.7394 156.057 71.557C155.765 71.3639 155.472 71.278 154.935 71.278Z" fill="#2B2A2A"/>
<path d="M101.533 70.8387L100.26 71.9869C99.4885 71.3323 98.2849 70.7636 97.2683 70.7636C96.8126 70.7636 96.3802 70.8387 95.9829 70.989C95.5856 71.1392 95.2234 71.3431 94.9195 71.622C94.6157 71.8903 94.382 72.2337 94.2068 72.6521C94.0315 73.0706 93.938 73.532 93.938 74.0256C93.938 75.0128 94.2418 75.8068 94.8494 76.4077C95.4571 77.0193 96.2634 77.3198 97.2566 77.3198C98.0278 77.3198 98.6938 77.0945 99.2664 76.6652C99.5936 76.4185 99.9909 76.2038 100.166 75.4957L97.28 75.4849L97.2566 73.9612H102.246C102.246 75.6137 101.919 76.4184 100.996 77.3842C100.084 78.3499 98.8341 78.8327 97.2449 78.8327C96.4853 78.8327 95.7842 78.7147 95.1299 78.4679C94.4755 78.2211 93.9146 77.8992 93.4472 77.47C92.9798 77.0408 92.6059 76.5365 92.3488 75.9571C92.0801 75.3669 91.9515 74.7231 91.9515 74.0363C91.9515 73.1135 92.1852 72.298 92.6409 71.5791C93.1083 70.8495 93.7394 70.2808 94.5456 69.8837C95.3519 69.4867 96.24 69.2829 97.2216 69.2829C98.0278 69.2829 98.7406 69.4009 99.3599 69.6262C99.9793 69.8516 101.101 70.5061 101.533 70.8387Z" fill="#2B2A2A"/>
<path d="M113.347 69.6147L114.854 78.4779H113.008L112.132 72.8552L109.993 78.4779H108.299L106.114 72.7801L105.261 78.4779H103.438L104.969 69.6147H106.663L109.164 76.1923L111.653 69.6147H113.347Z" fill="#2B2A2A"/>
<path d="M191.626 69.9474L192.082 72.6299H191.521L191.252 70.9238L190.61 72.6299H190.096L189.441 70.9024L189.184 72.6299H188.635L189.091 69.9474H189.605L190.353 71.9432L191.1 69.9474H191.626Z" fill="#2B2A2A"/>
<path d="M120.183 69.5076H121.854L125.874 78.5961H123.782L122.964 76.7505H119.108L118.29 78.5961H116.28L120.183 69.5076ZM122.392 75.0551L121.726 73.6065C121.515 73.1129 121.27 72.4691 121.001 71.6751H120.954C120.639 72.6301 120.405 73.2739 120.277 73.6065L119.622 75.0444H122.392V75.0551Z" fill="#2B2A2A"/>
<path d="M168.98 69.5076H170.663L174.683 78.5961H172.591L171.773 76.7505H167.917L167.099 78.5961H165.089L168.98 69.5076ZM171.189 75.0551L170.523 73.6065C170.312 73.1129 170.067 72.4691 169.798 71.6751H169.752C169.436 72.6301 169.202 73.2739 169.074 73.6065L168.42 75.0444H171.189V75.0551Z" fill="#2B2A2A"/>
<path d="M85.9689 69.5076H87.6398L91.6596 78.5961H89.5679L88.75 76.7505H84.8938L84.0759 78.5961H82.066L85.9689 69.5076ZM88.1657 75.0551L87.4996 73.6065C87.2892 73.1129 87.0439 72.4691 86.7752 71.6751H86.7284C86.4129 72.6301 86.1792 73.2739 86.0507 73.6065L85.3963 75.0444H88.1657V75.0551Z" fill="#2B2A2A"/>
<path d="M125.64 71.2352V69.5291H131.412V71.2352H129.484V78.5747H127.556V71.2352H125.64Z" fill="#2B2A2A"/>
<path d="M186.718 70.4412V69.9261H188.46V70.4412H187.875V72.6623H187.291V70.4412H186.718Z" fill="#2B2A2A"/>
<path d="M132.733 78.6603V69.6255H134.649V78.6603H132.733Z" fill="#2B2A2A"/>
<path d="M159.387 78.6604V69.7329H161.315V77.008H163.991V78.6604H159.387Z" fill="#2B2A2A"/>
<path d="M176.225 78.5854V74.6796L173.28 69.6793H175.057L177.078 73.1666H177.113L179.135 69.6793H180.911L177.919 74.6796V78.5854H176.225Z" fill="#2B2A2A"/>
<path d="M141.567 77.3513C140.585 77.3835 139.779 77.0401 139.172 76.4285C138.552 75.8169 138.248 75.0229 138.248 74.0464C138.248 73.0807 138.552 72.2867 139.172 71.675C139.791 71.0634 140.585 70.7522 141.567 70.7522C143.74 70.7522 144.617 72.072 144.617 72.072L145.809 71.1063C145.4 70.602 144.886 70.1943 144.278 69.8724C143.483 69.4539 142.572 69.25 141.579 69.25C140.585 69.25 139.674 69.4539 138.868 69.8724C138.061 70.2908 137.43 70.8595 136.975 71.5892C136.519 72.3188 136.285 73.1451 136.285 74.0464L136.262 74.0571C136.262 74.9585 136.496 75.7847 136.951 76.5251C137.407 77.2547 138.038 77.8342 138.844 78.2526C139.651 78.6711 140.55 78.875 141.555 78.875C142.549 78.875 143.448 78.6604 144.255 78.2419C144.874 77.92 145.388 77.5015 145.809 76.9865L144.605 75.892C144.605 75.892 143.46 77.2977 141.567 77.3513Z" fill="#2B2A2A"/>
</svg>
